<svg id="Capa_1" data-name="Capa 1" xmlns="http://www.w3.org/2000/svg" viewBox="0 0 253.12 33.35"><defs><style>.cls-1{fill:#fff;}.cls-2{fill:#27fb6b;}</style></defs><title>Logo</title><rect class="cls-1" x="84.42" y="17.48" width="9" height="3"/><path class="cls-1" d="M18.42,17.48v-3h-3v-3h-9v3h-3v3h-3v15h6v-6h9v6h6v-15Zm-3,6h-9v-6h3v-3h3v3h3Z"/><polygon class="cls-1" points="27.42 32.48 27.42 29.48 33.42 29.48 33.42 14.48 30.42 14.48 30.42 11.48 39.42 11.48 39.42 29.48 45.42 29.48 45.42 32.48 27.42 32.48"/><polygon class="cls-1" points="51.42 32.48 51.42 29.48 48.42 29.48 48.42 17.48 54.42 17.48 54.42 29.48 63.42 29.48 63.42 17.48 69.42 17.48 69.42 32.48 51.42 32.48"/><polygon class="cls-1" points="81.42 20.48 84.42 20.48 84.42 23.48 81.42 23.48 81.42 32.48 75.42 32.48 75.42 17.48 81.42 17.48 81.42 20.48"/><path class="cls-1" d="M114.42,20.48v-3h-15v3h12v3h-12v3h-3v3h3v3h18v-12Zm-3,9h-9v-3h9Z"/><path class="cls-2" d="M148.22,16.68a2,2,0,0,1,.6,1.5v9.7a2,2,0,0,1-.6,1.5,15.16,15.16,0,0,1-9.9,3.5,15.31,15.31,0,0,1-7.9-2.1,14.47,14.47,0,0,1-5.6-5.9,16.41,16.41,0,0,1-2.1-8.2,16.41,16.41,0,0,1,2.1-8.2,16.7,16.7,0,0,1,5.6-5.9,15.39,15.39,0,0,1,7.9-2.2,16.42,16.42,0,0,1,5.3.8,14.88,14.88,0,0,1,4.6,2.7,1.87,1.87,0,0,1,.6.7,2.92,2.92,0,0,1,.2.9,1.61,1.61,0,0,1-.6,1.3,1.87,1.87,0,0,1-1.4.5,2.65,2.65,0,0,1-1.4-.5,12.8,12.8,0,0,0-3.2-2,11.84,11.84,0,0,0-4.1-.6,10.9,10.9,0,0,0-5.8,1.7,11.38,11.38,0,0,0-4.2,4.5,13.3,13.3,0,0,0-1.6,6.2,12,12,0,0,0,1.6,6.2,11.38,11.38,0,0,0,4.2,4.5,10.9,10.9,0,0,0,5.8,1.7,12.09,12.09,0,0,0,6.5-2v-7.1h-5.6a2.46,2.46,0,0,1-1.5-.5,1.76,1.76,0,0,1-.6-1.3,1.61,1.61,0,0,1,.6-1.3,2,2,0,0,1,1.5-.5h7.6A1.79,1.79,0,0,1,148.22,16.68Z"/><path class="cls-2" d="M173.92,30.68a2.39,2.39,0,0,1-.5,1.4,2,2,0,0,1-1.5.5,1.9,1.9,0,0,1-1.8-1l-7-11.2h-5.9v10.1a2.1,2.1,0,1,1-4.2,0V3a2.05,2.05,0,0,1,2.1-2.1h7.3a10.79,10.79,0,0,1,5.4,1.3,8.92,8.92,0,0,1,3.7,3.5,9.8,9.8,0,0,1,1.3,5.2,9,9,0,0,1-1.5,5.1,9.49,9.49,0,0,1-4,3.4l6.2,10A2.84,2.84,0,0,1,173.92,30.68Zm-11.6-14.2a6.37,6.37,0,0,0,4.5-1.6,5,5,0,0,0,1.8-4,5.88,5.88,0,0,0-1.8-4.4,6.44,6.44,0,0,0-4.5-1.7h-5.2v11.7Z"/><path class="cls-2" d="M176.62,32a2,2,0,0,1-.6-1.5V3a2.05,2.05,0,0,1,2.1-2.1h18.3a2.46,2.46,0,0,1,1.5.5,1.82,1.82,0,0,1,.6,1.4,1.82,1.82,0,0,1-.6,1.4,2,2,0,0,1-1.5.5h-16.2v9.8h11.6a2.46,2.46,0,0,1,1.5.5,1.93,1.93,0,0,1,0,2.8,2,2,0,0,1-1.5.5h-11.6v10.1h16.2a2.46,2.46,0,0,1,1.5.5,1.82,1.82,0,0,1,.6,1.4,1.68,1.68,0,0,1-.6,1.4,2,2,0,0,1-1.5.5h-18.3A1.08,1.08,0,0,1,176.62,32Z"/><path class="cls-2" d="M202.42,32a2,2,0,0,1-.6-1.5V3a2.05,2.05,0,0,1,2.1-2.1h18.3a2.46,2.46,0,0,1,1.5.5,1.82,1.82,0,0,1,.6,1.4,1.82,1.82,0,0,1-.6,1.4,2,2,0,0,1-1.5.5H206v9.8h11.6a2.46,2.46,0,0,1,1.5.5,1.93,1.93,0,0,1,0,2.8,2,2,0,0,1-1.5.5H206v10.1h16.2a2.46,2.46,0,0,1,1.5.5,1.82,1.82,0,0,1,.6,1.4,1.68,1.68,0,0,1-.6,1.4,2,2,0,0,1-1.5.5h-18.3A1.08,1.08,0,0,1,202.42,32Z"/><path class="cls-2" d="M228.12,32a2,2,0,0,1-.6-1.5V3a2.05,2.05,0,0,1,2.1-2.1,2.92,2.92,0,0,1,.9.2,1.79,1.79,0,0,1,.7.5l17.7,23.5V3a2.1,2.1,0,1,1,4.2,0v27.4a2.05,2.05,0,0,1-2.1,2.1,2.92,2.92,0,0,1-.9-.2,1.79,1.79,0,0,1-.7-.5l-17.7-23.5v22.1a2.05,2.05,0,0,1-2.1,2.1A1.65,1.65,0,0,1,228.12,32Z"/></svg>